<?xml version="1.0" encoding="UTF-8" standalone="no"?>
<!-- Created with Inkscape (http://www.inkscape.org/) -->

<svg
        width="3345"
        height="760"
        viewBox="0 0 3345 760"
        version="1.1"
        id="svg5"
        xml:space="preserve"
        xmlns="http://www.w3.org/2000/svg"
        xmlns:svg="http://www.w3.org/2000/svg"><defs
     id="defs2"><mask
       maskUnits="userSpaceOnUse"
       id="mask34836"><g
         id="g34844"
         style="display:inline"><rect
           style="opacity:1;fill:#ffffff;fill-opacity:1;stroke:none;stroke-width:30;stroke-linecap:butt;stroke-linejoin:miter;stroke-miterlimit:3.6;stroke-dasharray:none;stroke-dashoffset:1.69901;stroke-opacity:1;paint-order:fill markers stroke"
           id="rect34838"
           width="321.36874"
           height="393.17322"
           x="347.20084"
           y="303.41763" /><path
        style="color:#000000;fill:#000000;fill-opacity:1"
        d="m 444.41797,377.52148 v 30 H 485 v 69.70899 h 30 v -99.70899 z"
        id="path34840" /><rect
        style="display:inline;opacity:1;fill:#000000;fill-opacity:1;stroke:none;stroke-width:30;stroke-linecap:butt;stroke-linejoin:miter;stroke-miterlimit:3.6;stroke-dasharray:none;stroke-dashoffset:1.69901;stroke-opacity:1;paint-order:fill markers stroke"
        id="rect34842"
        width="309.10947"
        height="52.977684"
        x="339.31985"
        y="682.50513" /></g></mask></defs><g
        id="layer1"
        style="display:inline"><circle
       style="fill:#ff914d;fill-opacity:1;stroke-width:3.84442;stroke-linejoin:round;stroke-miterlimit:3.6;stroke-dasharray:0, 42.2887;stroke-dashoffset:1.92222;paint-order:fill markers stroke"
       id="path649"
       cx="380"
       cy="380"
       r="380" /><circle
        style="opacity:1;fill:#1c3262;fill-opacity:1;stroke-width:4.48218;stroke-linejoin:round;stroke-miterlimit:3.6;stroke-dasharray:0, 49.3041;stroke-dashoffset:2.2411;paint-order:fill markers stroke"
        id="path1849"
        cx="380"
        cy="380"
        r="357.5" /><circle
        style="opacity:1;fill:#ffffff;fill-opacity:1;stroke-width:7.60347;stroke-linejoin:round;stroke-miterlimit:3.6;stroke-dasharray:0, 83.6382;stroke-dashoffset:3.80175;paint-order:fill markers stroke"
        id="path2908"
        cx="380"
        cy="380"
        r="285" /></g><g
        id="layer3"
        style="display:inline;opacity:1;fill:#0000ff;fill-opacity:1;stroke:#0000ff;stroke-width:30;stroke-dasharray:none;stroke-opacity:1"><path
       style="fill:none;stroke:#d2e2ed;stroke-width:16;stroke-linecap:butt;stroke-linejoin:miter;stroke-dasharray:none;stroke-opacity:1"
       d="m 317.57863,399.19266 c 0,-14.68304 9.39061,-29.27642 27.71349,-29.27642 H 500 654.70788 c 18.32288,0 27.71349,14.59338 27.71349,29.27642"
       id="path10166"
       class="UnoptimicedTransforms"
       transform="translate(-120,-120)" /><rect
        style="opacity:1;fill:none;fill-opacity:1;stroke:#d2e2ed;stroke-width:16;stroke-linejoin:round;stroke-miterlimit:3.6;stroke-dasharray:none;stroke-dashoffset:1.69901;stroke-opacity:1;paint-order:fill markers stroke"
        id="rect5553"
        width="396.04181"
        height="34.541279"
        x="181.9791"
        y="284.35248"
        ry="0" /><path
        style="fill:none;stroke:#d2e2ed;stroke-width:16;stroke-linecap:butt;stroke-linejoin:round;stroke-dasharray:none;stroke-opacity:1"
        d="M 329.05076,376.577 500,296.31283 670.94924,376.577"
        id="path11671"
        class="UnoptimicedTransforms"
        transform="translate(-120,-122)" /><path
        style="opacity:1;fill:none;fill-opacity:1;stroke:#d2e2ed;stroke-width:16;stroke-linecap:butt;stroke-linejoin:round;stroke-miterlimit:3.6;stroke-dasharray:none;stroke-dashoffset:1.69901;stroke-opacity:1;paint-order:fill markers stroke"
        id="path14379"
        d="M 218.90302,248.9386 A 173.74869,156.74083 0 0 1 380,150.91393 173.74869,156.74083 0 0 1 541.09698,248.93861" /><rect
        style="opacity:1;fill:none;fill-opacity:1;stroke:#d2e2ed;stroke-width:16;stroke-linecap:butt;stroke-linejoin:round;stroke-miterlimit:3.6;stroke-dasharray:none;stroke-dashoffset:1.69901;stroke-opacity:1;paint-order:fill markers stroke"
        id="rect16272"
        width="385.04819"
        height="30.480778"
        x="187.47589"
        y="527.79407" /><path
        style="fill:none;stroke:#d2e2ed;stroke-width:16;stroke-linecap:round;stroke-linejoin:miter;stroke-dasharray:none;stroke-opacity:1"
        d="M 177.12283,558.27484 H 582.87711"
        id="path16278" /><path
        id="rect16280"
        style="opacity:1;fill:none;stroke:#d2e2ed;stroke-width:16;stroke-linecap:butt;stroke-linejoin:round;stroke-miterlimit:3.6;stroke-dashoffset:1.69901;stroke-opacity:1;paint-order:fill markers stroke"
        d="m 324.65039,441.91016 13.04688,29.11328 z m 101.52734,0 -13.04688,29.11328 z M 413.13085,550.4043 v -79.38086 h -37.71679 -37.71679 v 79.38086 m -13.04688,91.68554 13.04688,-29.11328 z m 101.52734,0 -13.04688,-29.11328 z M 413.13085,533.5957 v 79.38086 H 375.41406 337.69727 V 533.5957 m 118.48046,-91.68554 13.04688,29.11328 z m 101.52734,0 -13.04688,29.11328 z M 544.65819,550.4043 V 471.02344 H 506.9414 469.22461 v 79.38086 m -13.04688,91.68554 13.04688,-29.11328 z m 101.52734,0 -13.04688,-29.11328 z M 544.65819,533.5957 v 79.38086 H 506.9414 469.22461 V 533.5957 m 118.48046,-91.68554 13.04688,29.11328 z m 101.52734,0 -13.04688,29.11328 z M 676.18553,550.4043 v -79.38086 h -37.71679 -37.71679 v 79.38086 m -13.04688,91.68554 13.04688,-29.11328 z m 101.52734,0 -13.04688,-29.11328 z M 676.18553,533.5957 v 79.38086 H 638.46874 600.75195 V 533.5957"
        class="UnoptimicedTransforms"
        transform="translate(-125.69922,-120)" /></g><g
        id="layer4"
        style="display:inline"><g
       id="g25278"
       mask="url(#mask34836)"
       style="fill:#1c3262;fill-opacity:1;stroke:#1c3262;stroke-opacity:1"
       clip-path="none"
       transform="translate(-120,-120)"><g
         id="path20860"
         mask="none"
         class="UnoptimicedTransforms"><path
           style="color:#000000;stroke:none;stroke-width:1px;-inkscape-stroke:none"
           d="m 500,318.38626 h -58.15271 l 14.69306,59.2667 v 79.48171 H 500 543.45965 v -79.48171 l 14.69306,-59.2667 z"
           id="path751" /><path
        style="color:#000000;stroke:none;-inkscape-stroke:none"
        d="m 441.20898,317.88672 14.83204,59.82812 v 79.91993 H 500 543.95898 v -79.91993 l 14.83204,-59.82812 H 500 Z m 1.27735,1 H 500 557.51367 l -14.55469,58.70508 v 79.04297 H 500 457.04102 V 377.5918 Z"
        id="path753" /></g><circle
        style="display:inline;opacity:1;fill:none;fill-opacity:1;stroke:#1c3262;stroke-width:30;stroke-linecap:butt;stroke-linejoin:miter;stroke-miterlimit:3.6;stroke-dasharray:none;stroke-dashoffset:1.69901;stroke-opacity:1;paint-order:fill markers stroke"
        id="path33194"
        cx="500"
        cy="568.30609"
        r="115" /></g><g
        id="g30000"
        transform="translate(-121.85756,-121.23838)"
        style="display:inline"><path
         d="m 564.9186,525.4091 c 0,1.67725 -0.16376,3.33839 -0.49128,4.98343 -0.32752,1.64501 -0.81249,3.24233 -1.45492,4.79194 -0.64244,1.54961 -1.42998,3.02169 -2.36264,4.41628 -0.93266,1.39461 -1.99252,2.68491 -3.17957,3.87091 -1.18707,1.18598 -2.47852,2.24492 -3.87435,3.17674 -1.39583,0.93185 -2.86923,1.71872 -4.4202,2.36057 -1.55097,0.64186 -3.1497,1.1264 -4.79619,1.45364 -1.6465,0.32723 -3.30912,0.49082 -4.98786,0.49082 -1.67876,0 -3.34138,-0.16359 -4.9879,-0.49082 -1.6465,-0.32724 -3.24523,-0.81178 -4.79618,-1.45364 -1.55098,-0.64185 -3.02437,-1.42872 -4.42021,-2.36054 -1.39583,-0.93185 -2.68727,-1.99079 -3.87433,-3.17677 -1.18707,-1.186 -2.24693,-2.4763 -3.17959,-3.87091 -0.93267,-1.39459 -1.72021,-2.86667 -2.36265,-4.41628 -0.64243,-1.54961 -1.12739,-3.14693 -1.45489,-4.79194 -0.3275,-1.64504 -0.49126,-3.30618 -0.49126,-4.98343 0,-1.67727 0.16376,-3.33844 0.49126,-4.98348 0.3275,-1.64504 0.81247,-3.24236 1.4549,-4.79196 0.64244,-1.54959 1.42998,-3.02168 2.36264,-4.41628 0.93266,-1.39458 1.99252,-2.68486 3.17959,-3.87087 1.18706,-1.18602 2.4785,-2.24493 3.87433,-3.17676 1.39584,-0.93185 2.86923,-1.7187 4.42021,-2.36056 1.55095,-0.64185 3.14968,-1.12639 4.79618,-1.4536 1.64652,-0.32721 3.30914,-0.49082 4.9879,-0.49082 1.67874,0 3.34136,0.16361 4.98786,0.49082 1.64649,0.32721 3.24522,0.81175 4.79619,1.4536 1.55097,0.64186 3.02437,1.42871 4.4202,2.36056 1.39583,0.93183 2.68728,1.99074 3.87435,3.17676 1.18705,1.18601 2.24691,2.47631 3.17957,3.87088 0.93266,1.39459 1.72022,2.86668 2.36265,4.41627 0.64242,1.5496 1.12739,3.14692 1.45492,4.79196 0.32751,1.64504 0.49127,3.30621 0.49127,4.98348 z"
         style="display:inline;fill:#ff914d;fill-opacity:1;fill-rule:nonzero;stroke:none;stroke-width:0.384238"
         id="path3952-2" /><path
        d="m 456.69994,557.14076 c -1e-5,1.23896 -0.12098,2.46603 -0.36291,3.68117 -0.24192,1.21515 -0.60016,2.39505 -1.07471,3.53973 -0.47456,1.14468 -1.05631,2.23209 -1.74526,3.26226 -0.68894,1.03016 -1.47185,1.9833 -2.34871,2.85938 -0.87687,0.87608 -1.83084,1.65829 -2.86191,2.34662 -1.03109,0.68832 -2.11947,1.26956 -3.26514,1.74371 -1.14568,0.47413 -2.32665,0.83204 -3.54289,1.07374 -1.21623,0.24173 -2.4444,0.3626 -3.68447,0.36262 -1.24006,-2e-5 -2.46822,-0.12089 -3.68447,-0.36262 -1.21625,-0.2417 -2.39721,-0.59961 -3.54289,-1.07374 -1.14567,-0.47413 -2.23406,-1.05536 -3.26514,-1.74368 -1.03108,-0.68836 -1.98505,-1.47057 -2.86191,-2.34662 -0.87686,-0.87611 -1.65976,-1.82925 -2.34872,-2.85941 -0.68895,-1.03017 -1.2707,-2.11758 -1.74525,-3.26226 -0.47456,-1.14468 -0.8328,-2.32458 -1.07472,-3.53973 -0.24193,-1.21514 -0.36289,-2.44221 -0.36289,-3.68117 0,-1.23899 0.12096,-2.46606 0.36289,-3.68123 0.24192,-1.21517 0.60016,-2.39508 1.07471,-3.53973 0.47456,-1.14468 1.05631,-2.23209 1.74526,-3.26225 0.68896,-1.03017 1.47186,-1.98331 2.34872,-2.85939 0.87686,-0.87609 1.83083,-1.65831 2.86191,-2.34665 1.03108,-0.68834 2.11947,-1.26957 3.26514,-1.7437 1.14568,-0.47413 2.32664,-0.83204 3.54289,-1.07372 1.21625,-0.24171 2.44441,-0.36257 3.68447,-0.36257 1.24007,0 2.46823,0.12086 3.68447,0.36257 1.21624,0.24168 2.3972,0.59959 3.54288,1.07372 1.14568,0.47413 2.23406,1.05536 3.26515,1.7437 1.03107,0.68834 1.98504,1.47056 2.86191,2.34665 0.87686,0.87608 1.65977,1.82922 2.34871,2.85939 0.68895,1.03016 1.2707,2.11757 1.74525,3.26225 0.47455,1.14465 0.8328,2.32456 1.07472,3.53973 0.24193,1.21517 0.3629,2.44224 0.36291,3.68123 z"
        style="display:inline;fill:#ff914d;fill-opacity:1;fill-rule:nonzero;stroke:none;stroke-width:0.384238"
        id="path3954-0" /><path
        d="m 480.56017,515.45023 c -1e-5,0.92273 -0.0901,1.8366 -0.27027,2.74158 -0.18018,0.905 -0.447,1.78373 -0.80042,2.63624 -0.35343,0.8525 -0.78669,1.66236 -1.29978,2.42958 -0.5131,0.76722 -1.09617,1.47708 -1.74923,2.12957 -0.65305,0.65248 -1.36353,1.23505 -2.13143,1.7477 -0.7679,0.51264 -1.57848,0.94551 -2.43174,1.29864 -0.85326,0.3531 -1.73278,0.61968 -2.63859,0.79971 -0.90581,0.18001 -1.82049,0.27002 -2.74404,0.27002 -0.92356,0 -1.83824,-0.09 -2.74405,-0.27002 -0.90581,-0.18003 -1.78535,-0.44661 -2.6386,-0.79971 -0.85326,-0.35313 -1.66384,-0.786 -2.43175,-1.29864 -0.7679,-0.51265 -1.47838,-1.09522 -2.13143,-1.7477 -0.65305,-0.65249 -1.23613,-1.36233 -1.74923,-2.12955 -0.5131,-0.76724 -0.94636,-1.5771 -1.29979,-2.42958 -0.35343,-0.8525 -0.62023,-1.73123 -0.8004,-2.63626 -0.18018,-0.90498 -0.27026,-1.81885 -0.27026,-2.74158 0,-0.92274 0.0901,-1.83661 0.27026,-2.74162 0.18017,-0.90501 0.44697,-1.78377 0.8004,-2.63626 0.35343,-0.85249 0.78669,-1.66235 1.29979,-2.42958 0.51311,-0.76722 1.09618,-1.47707 1.74924,-2.12953 0.65305,-0.65248 1.36352,-1.23504 2.13142,-1.74768 0.76792,-0.51264 1.5785,-0.94553 2.43176,-1.29864 0.85325,-0.35311 1.73278,-0.61968 2.63859,-0.7997 0.90581,-0.18001 1.82049,-0.27002 2.74405,-0.27002 0.92355,0 1.83823,0.09 2.74403,0.27003 0.90581,0.18002 1.78534,0.44658 2.63859,0.79969 0.85326,0.35311 1.66384,0.786 2.43175,1.29863 0.7679,0.51265 1.47838,1.09521 2.13143,1.74769 0.65306,0.65246 1.23613,1.36231 1.74922,2.12953 0.5131,0.76723 0.94636,1.57709 1.29979,2.42958 0.35342,0.85249 0.62024,1.73125 0.80042,2.63626 0.18018,0.90501 0.27026,1.81888 0.27027,2.74162 z"
        style="display:inline;fill:#ff914d;fill-opacity:1;fill-rule:nonzero;stroke:none;stroke-width:0.384238"
        id="path3956-1" /><path
        d="m 500.40717,557.08698 c -1e-5,0.70484 -0.0688,1.40291 -0.20647,2.0942 -0.13762,0.69132 -0.34142,1.36257 -0.61139,2.01375 -0.26997,0.65119 -0.60092,1.26982 -0.99287,1.8559 -0.39194,0.58604 -0.83733,1.12827 -1.33618,1.62669 -0.49884,0.49839 -1.04157,0.9434 -1.62814,1.33502 -0.5866,0.39157 -1.20577,0.72224 -1.85754,0.99198 -0.65178,0.26974 -1.32363,0.47336 -2.01553,0.61086 -0.69192,0.13751 -1.39062,0.20627 -2.09609,0.20629 -0.70548,-2e-5 -1.40418,-0.0688 -2.0961,-0.20629 -0.69192,-0.13748 -1.36377,-0.3411 -2.01555,-0.61084 -0.65177,-0.26974 -1.27096,-0.60041 -1.85753,-0.992 -0.58658,-0.39162 -1.1293,-0.83663 -1.62814,-1.33502 -0.49886,-0.49842 -0.94426,-1.04065 -1.33619,-1.62669 -0.39194,-0.58608 -0.7229,-1.20471 -0.99287,-1.8559 -0.26997,-0.65118 -0.47377,-1.32243 -0.61141,-2.01375 -0.13762,-0.69129 -0.20643,-1.38936 -0.20643,-2.0942 0,-0.70487 0.0688,-1.40293 0.20643,-2.09425 0.13764,-0.69132 0.34144,-1.36257 0.61141,-2.01375 0.26997,-0.65119 0.60093,-1.26981 0.99286,-1.85588 0.39194,-0.58606 0.83734,-1.12829 1.3362,-1.62668 0.49884,-0.49842 1.04156,-0.94343 1.62814,-1.33502 0.58657,-0.3916 1.20576,-0.72224 1.85753,-0.99198 0.65178,-0.26975 1.32363,-0.47336 2.01555,-0.61084 0.69192,-0.13754 1.39062,-0.20629 2.0961,-0.20629 0.70547,0 1.40416,0.0688 2.09608,0.20624 0.69191,0.13751 1.36376,0.34112 2.01554,0.61086 0.65177,0.26974 1.27094,0.60041 1.85754,0.99201 0.58657,0.39159 1.1293,0.83658 1.62814,1.335 0.49885,0.49839 0.94424,1.04062 1.33618,1.62668 0.39195,0.58606 0.7229,1.20471 0.99287,1.8559 0.26997,0.65118 0.47377,1.32243 0.6114,2.01375 0.13763,0.69132 0.20645,1.38938 0.20646,2.09425 z"
        style="display:inline;fill:#ff914d;fill-opacity:1;fill-rule:nonzero;stroke:none;stroke-width:0.384238"
        id="path3958-2" /><path
        d="m 510.30569,496.65397 c -1e-5,1.21519 -0.23275,2.38414 -0.69821,3.50684 -0.46545,1.12269 -1.1282,2.11369 -1.98823,2.97298 -0.86002,0.85926 -1.8519,1.52141 -2.9756,1.98645 -1.12369,0.46504 -2.29367,0.69757 -3.50995,0.69759 -1.21629,-2e-5 -2.38628,-0.23255 -3.50998,-0.69758 -1.1237,-0.46505 -2.11557,-1.1272 -2.9756,-1.98646 -0.86004,-0.85929 -1.52279,-1.85029 -1.98825,-2.97298 -0.46544,-1.1227 -0.69816,-2.29165 -0.69815,-3.50684 -1e-5,-1.21522 0.23271,-2.38418 0.69815,-3.50688 0.46546,-1.1227 1.12821,-2.11368 1.98825,-2.97295 0.86003,-0.85928 1.8519,-1.52144 2.9756,-1.98648 1.1237,-0.46502 2.29369,-0.69754 3.50998,-0.69754 1.21628,0 2.38626,0.23252 3.50995,0.69754 1.1237,0.46503 2.11558,1.12718 2.97561,1.98647 0.86003,0.85928 1.52279,1.85026 1.98825,2.97296 0.46545,1.1227 0.69817,2.29166 0.69818,3.50688 z"
        style="display:inline;fill:#ff914d;fill-opacity:1;fill-rule:nonzero;stroke:none;stroke-width:0.384238"
        id="path3960-5" /><path
        d="m 542.26925,582.03599 c -1e-5,0.92273 -0.0901,1.83658 -0.27026,2.74159 -0.18018,0.90501 -0.44699,1.78377 -0.80042,2.63627 -0.35344,0.8525 -0.78671,1.66236 -1.29979,2.42958 -0.51309,0.76722 -1.09617,1.47708 -1.74922,2.12956 -0.65307,0.65245 -1.36355,1.23499 -2.13145,1.74764 -0.76791,0.51264 -1.57849,0.94554 -2.43175,1.29864 -0.85325,0.35312 -1.73277,0.6197 -2.63857,0.79971 -0.90581,0.18003 -1.82049,0.27005 -2.74404,0.27005 -0.92355,0 -1.83824,-0.09 -2.74406,-0.27005 -0.9058,-0.18001 -1.78534,-0.44659 -2.6386,-0.79971 -0.85324,-0.35312 -1.66382,-0.78602 -2.43173,-1.29867 -0.76791,-0.51264 -1.47839,-1.09519 -2.13143,-1.74764 -0.65305,-0.65247 -1.23613,-1.36233 -1.74922,-2.12955 -0.51311,-0.76722 -0.94638,-1.57706 -1.2998,-2.42956 -0.35343,-0.8525 -0.62022,-1.73126 -0.8004,-2.63627 -0.18018,-0.90501 -0.27028,-1.81886 -0.27027,-2.74159 -10e-6,-0.92276 0.0901,-1.83663 0.27025,-2.74164 0.18018,-0.90501 0.44699,-1.78374 0.80042,-2.63624 0.35342,-0.85251 0.78668,-1.66237 1.29979,-2.42959 0.5131,-0.76722 1.09618,-1.47708 1.74923,-2.12953 0.65304,-0.65247 1.36352,-1.23504 2.13143,-1.74769 0.76791,-0.51264 1.57849,-0.94551 2.43173,-1.29864 0.85326,-0.3531 1.7328,-0.61966 2.6386,-0.79966 0.90582,-0.18001 1.82051,-0.27003 2.74406,-0.27003 0.92355,0 1.83823,0.09 2.74404,0.27003 0.9058,0.18 1.78533,0.44656 2.63858,0.79966 0.85325,0.35313 1.66383,0.786 2.43173,1.29864 0.76791,0.51265 1.47839,1.09522 2.13144,1.74769 0.65304,0.65245 1.23612,1.36231 1.74922,2.12953 0.5131,0.76722 0.94637,1.57708 1.2998,2.42959 0.35344,0.8525 0.62024,1.73123 0.80041,2.63624 0.18018,0.90501 0.27027,1.81888 0.27028,2.74164 z"
        style="display:inline;fill:#ff914d;fill-opacity:1;fill-rule:nonzero;stroke:none;stroke-width:0.384238"
        id="path3962-2" /><path
        d="m 579.20323,566.98441 c 0,1.21516 -0.23273,2.3841 -0.69819,3.50682 -0.46548,1.12268 -1.12822,2.11368 -1.98823,2.97298 -0.86005,0.85925 -1.85192,1.5214 -2.97563,1.98646 -1.12368,0.46504 -2.29366,0.69756 -3.50993,0.69758 -1.2163,-2e-5 -2.38628,-0.23254 -3.50998,-0.6976 -1.12371,-0.46506 -2.11558,-1.12719 -2.97561,-1.98644 -0.86005,-0.8593 -1.5228,-1.8503 -1.98825,-2.97298 -0.46543,-1.12272 -0.69815,-2.29166 -0.69814,-3.50682 -1e-5,-1.21522 0.23271,-2.38418 0.69816,-3.50687 0.46545,-1.12269 1.12819,-2.11369 1.98824,-2.97296 0.86003,-0.85928 1.8519,-1.52143 2.9756,-1.98649 1.1237,-0.46501 2.29368,-0.69753 3.50998,-0.69753 1.21627,0 2.38627,0.23252 3.50995,0.69753 1.12369,0.46506 2.11556,1.12721 2.97561,1.98649 0.86001,0.85927 1.52275,1.85027 1.98823,2.97296 0.46546,1.12269 0.69819,2.29165 0.69819,3.50687 z"
        style="display:inline;fill:#ff914d;fill-opacity:1;fill-rule:nonzero;stroke:none;stroke-width:0.384238"
        id="path3964-8" /></g><path
        style="display:inline;opacity:1;fill:#1c3262;fill-opacity:1;stroke:#1c3262;stroke-width:16;stroke-linecap:butt;stroke-linejoin:miter;stroke-dasharray:none;stroke-opacity:1"
        d="m 314.35143,539.95031 c 4.27947,-22.22751 1.72456,-47.64998 20.30341,-55.87027 26.94233,-11.92073 81.65672,25.46341 116.46868,20.44076 6.9644,-1.00482 24.55949,-2.40436 34.92032,-35.91668 11.79497,35.13804 -39.2702,77.55741 -39.2702,77.55741 z"
        id="path30079" /></g><g
        id="layer2"
        style="fill:#ffffff;fill-opacity:1"><g
       id="g1048"
       style="fill:#ffffff;fill-opacity:1"
       transform="matrix(1.3491197,0,0,1.3491197,-430.13246,-249.94859)"><g
         aria-label="Science Olympiad"
         id="text426"
         style="font-size:189.095px;font-family:Montserrat;-inkscape-font-specification:'Montserrat, @wght=800';font-variation-settings:'wght' 800;stroke-width:0.886384;fill:#ffffff;fill-opacity:1"><path
           d="m 1052.9553,436.30675 q -16.2622,0 -31.3898,-3.97099 -14.9385,-4.16009 -24.39327,-10.58932 l 12.29117,-27.60787 q 8.8875,5.67285 20.4223,9.45475 11.7239,3.5928 23.2586,3.5928 7.7529,0 12.4803,-1.32366 4.7274,-1.51276 6.8074,-3.7819 2.2692,-2.45824 2.2692,-5.67285 0,-4.53828 -4.1601,-7.18561 -4.1601,-2.64733 -10.7784,-4.34919 -6.6184,-1.70185 -14.7494,-3.40371 -7.942,-1.70185 -16.0731,-4.34918 -7.942,-2.64733 -14.5603,-6.80742 -6.6184,-4.34919 -10.7784,-11.15661 -4.16013,-6.99651 -4.16013,-17.58583 0,-11.91299 6.42923,-21.55683 6.6183,-9.64385 19.6659,-15.50579 13.0475,-5.86195 32.5243,-5.86195 13.0476,0 25.5278,3.02552 12.6694,2.83643 22.5023,8.50928 l -11.5347,27.79696 q -9.4548,-5.10556 -18.7205,-7.5638 -9.2656,-2.64733 -17.964,-2.64733 -7.7529,0 -12.4802,1.70186 -4.7274,1.51276 -6.8075,4.16009 -2.08,2.64733 -2.08,6.05104 0,4.34918 3.971,6.99651 4.1601,2.45824 10.7784,4.16009 6.8074,1.51276 14.7494,3.21462 8.1311,1.70185 16.0731,4.34918 8.1311,2.45824 14.7494,6.80742 6.6183,4.16009 10.5893,11.15661 4.1601,6.80742 4.1601,17.20764 0,11.5348 -6.6183,21.36774 -6.4293,9.64384 -19.4768,15.50579 -12.8585,5.86194 -32.5243,5.86194 z"
           id="path755"
           style="fill:#ffffff;fill-opacity:1" /><path
        d="m 1179.4597,435.36128 q -17.0186,0 -30.4443,-6.80742 -13.2367,-6.80742 -20.8005,-18.72041 -7.5638,-12.10208 -7.5638,-27.60787 0,-15.50579 7.5638,-27.41877 7.5638,-11.91299 20.8005,-18.53131 13.4257,-6.80742 30.4443,-6.80742 17.3967,0 30.0661,7.3747 12.6694,7.37471 17.964,20.80045 l -27.7969,14.18213 q -3.5929,-7.18561 -8.8875,-10.40023 -5.2947,-3.40371 -11.5348,-3.40371 -6.2401,0 -11.3457,2.83643 -5.1056,2.83642 -8.1311,8.32018 -2.8364,5.29466 -2.8364,13.04755 0,7.94199 2.8364,13.42575 3.0255,5.48375 8.1311,8.32018 5.1056,2.83642 11.3457,2.83642 6.2401,0 11.5348,-3.21461 5.2946,-3.40371 8.8875,-10.58932 l 27.7969,14.18212 q -5.2946,13.42575 -17.964,20.80045 -12.6694,7.37471 -30.0661,7.37471 z"
        id="path757"
        style="fill:#ffffff;fill-opacity:1" /><path
        d="M 1240.7528,433.65942 V 331.16993 h 35.928 v 102.48949 z m 17.964,-113.83519 q -9.8329,0 -15.884,-5.48375 -6.051,-5.48376 -6.051,-13.61484 0,-8.13109 6.051,-13.61484 6.0511,-5.48376 15.884,-5.48376 9.8329,0 15.884,5.29466 6.051,5.10557 6.051,13.23665 0,8.50928 -6.051,14.18213 -5.862,5.48375 -15.884,5.48375 z"
        id="path759"
        style="fill:#ffffff;fill-opacity:1" /><path
        d="m 1353.6424,435.36128 q -18.1531,0 -31.7679,-6.80742 -13.4258,-6.99652 -20.9896,-18.9095 -7.3747,-12.10208 -7.3747,-27.41878 0,-15.31669 7.1856,-27.22968 7.3747,-12.10208 20.2332,-18.7204 12.8585,-6.80742 28.9315,-6.80742 15.1276,0 27.6079,6.24013 12.4803,6.05104 19.855,17.96403 7.3747,11.91298 7.3747,28.93153 0,1.89095 -0.1891,4.34919 -0.1891,2.45823 -0.3782,4.53828 h -81.1218 v -18.9095 h 62.0232 l -13.6148,5.29466 q 0.1891,-6.99652 -2.6474,-12.10208 -2.6473,-5.10557 -7.5638,-7.94199 -4.7273,-2.83643 -11.1566,-2.83643 -6.4292,0 -11.3457,2.83643 -4.7273,2.83642 -7.3747,8.13108 -2.6473,5.10557 -2.6473,12.10208 v 5.48376 q 0,7.5638 3.0255,13.04755 3.2146,5.48376 9.0766,8.50928 5.8619,2.83642 13.993,2.83642 7.5638,0 12.8585,-2.08004 5.4837,-2.26914 10.7784,-6.80742 l 18.9095,19.66588 q -7.3747,8.13108 -18.1531,12.48027 -10.7785,4.16009 -25.5279,4.16009 z"
        id="path761"
        style="fill:#ffffff;fill-opacity:1" /><path
        d="m 1488.089,329.46808 q 11.913,0 21.5568,4.91647 9.6439,4.72737 15.1276,14.74941 5.6729,10.02203 5.6729,25.90601 v 58.61945 h -35.9281 v -52.7575 q 0,-10.96751 -4.5382,-15.88398 -4.3492,-5.10557 -12.2912,-5.10557 -5.6729,0 -10.4002,2.64733 -4.7274,2.45824 -7.3747,7.7529 -2.6474,5.29466 -2.6474,13.80393 v 49.54289 h -35.928 V 331.16993 h 34.2262 v 29.12063 l -6.6184,-8.50927 q 5.862,-11.15661 16.0731,-16.64036 10.2112,-5.67285 23.0696,-5.67285 z"
        id="path763"
        style="fill:#ffffff;fill-opacity:1" /><path
        d="m 1606.6319,435.36128 q -17.0185,0 -30.4443,-6.80742 -13.2366,-6.80742 -20.8004,-18.72041 -7.5638,-12.10208 -7.5638,-27.60787 0,-15.50579 7.5638,-27.41877 7.5638,-11.91299 20.8004,-18.53131 13.4258,-6.80742 30.4443,-6.80742 17.3968,0 30.0662,7.3747 12.6693,7.37471 17.964,20.80045 l -27.797,14.18213 q -3.5928,-7.18561 -8.8875,-10.40023 -5.2946,-3.40371 -11.5348,-3.40371 -6.2401,0 -11.3457,2.83643 -5.1055,2.83642 -8.131,8.32018 -2.8365,5.29466 -2.8365,13.04755 0,7.94199 2.8365,13.42575 3.0255,5.48375 8.131,8.32018 5.1056,2.83642 11.3457,2.83642 6.2402,0 11.5348,-3.21461 5.2947,-3.40371 8.8875,-10.58932 l 27.797,14.18212 q -5.2947,13.42575 -17.964,20.80045 -12.6694,7.37471 -30.0662,7.37471 z"
        id="path765"
        style="fill:#ffffff;fill-opacity:1" /><path
        d="m 1720.8583,435.36128 q -18.1531,0 -31.7679,-6.80742 -13.4258,-6.99652 -20.9896,-18.9095 -7.3747,-12.10208 -7.3747,-27.41878 0,-15.31669 7.1856,-27.22968 7.3747,-12.10208 20.2332,-18.7204 12.8584,-6.80742 28.9315,-6.80742 15.1276,0 27.6079,6.24013 12.4803,6.05104 19.855,17.96403 7.3747,11.91298 7.3747,28.93153 0,1.89095 -0.1891,4.34919 -0.1891,2.45823 -0.3782,4.53828 h -81.1218 v -18.9095 h 62.0232 l -13.6149,5.29466 q 0.1891,-6.99652 -2.6473,-12.10208 -2.6473,-5.10557 -7.5638,-7.94199 -4.7274,-2.83643 -11.1566,-2.83643 -6.4292,0 -11.3457,2.83643 -4.7274,2.83642 -7.3747,8.13108 -2.6473,5.10557 -2.6473,12.10208 v 5.48376 q 0,7.5638 3.0255,13.04755 3.2146,5.48376 9.0766,8.50928 5.8619,2.83642 13.993,2.83642 7.5638,0 12.8584,-2.08004 5.4838,-2.26914 10.7785,-6.80742 l 18.9095,19.66588 q -7.3747,8.13108 -18.1532,12.48027 -10.7784,4.16009 -25.5278,4.16009 z"
        id="path767"
        style="fill:#ffffff;fill-opacity:1" /><path
        d="m 1912.0335,436.30675 q -15.884,0 -29.3098,-5.10556 -13.4257,-5.10557 -23.4478,-14.37122 -9.8329,-9.45475 -15.3167,-21.93502 -5.4837,-12.48027 -5.4837,-27.41878 0,-14.9385 5.4837,-27.41877 5.4838,-12.48027 15.3167,-21.74593 10.0221,-9.45475 23.4478,-14.56031 13.4258,-5.10557 29.3098,-5.10557 16.073,0 29.3097,5.10557 13.4257,5.10556 23.2587,14.56031 9.8329,9.26566 15.3167,21.74593 5.6728,12.48027 5.6728,27.41877 0,14.93851 -5.6728,27.60787 -5.4838,12.48027 -15.3167,21.74593 -9.833,9.26565 -23.2587,14.37122 -13.2367,5.10556 -29.3097,5.10556 z m 0,-31.01158 q 7.5638,0 13.993,-2.64733 6.6183,-2.64733 11.3457,-7.5638 4.9165,-5.10556 7.5638,-12.10208 2.8364,-6.99651 2.8364,-15.50579 0,-8.69837 -2.8364,-15.50579 -2.6473,-6.99651 -7.5638,-11.91298 -4.7274,-5.10557 -11.3457,-7.7529 -6.4292,-2.64733 -13.993,-2.64733 -7.5638,0 -14.1822,2.64733 -6.4292,2.64733 -11.3457,7.7529 -4.7274,4.91647 -7.5638,11.91298 -2.6473,6.80742 -2.6473,15.50579 0,8.50928 2.6473,15.50579 2.8364,6.99652 7.5638,12.10208 4.9165,4.91647 11.3457,7.5638 6.6184,2.64733 14.1822,2.64733 z"
        id="path769"
        style="fill:#ffffff;fill-opacity:1" /><path
        d="M 2003.5556,433.65942 V 293.35093 h 35.9281 v 140.30849 z"
        id="path771"
        style="fill:#ffffff;fill-opacity:1" /><path
        d="m 2080.3281,472.04571 q -8.1311,0 -16.4513,-2.64733 -8.1311,-2.45824 -13.2366,-6.61833 l 12.4802,-25.14963 q 3.2147,2.83642 7.3747,4.34918 4.3492,1.70186 8.5093,1.70186 5.862,0 9.2657,-2.64733 3.4037,-2.64733 5.8619,-8.32018 l 4.7274,-11.91299 2.8364,-3.5928 34.7935,-86.03823 h 34.2262 l -44.2482,106.64958 q -5.2947,13.23665 -12.2912,20.61136 -6.8074,7.5638 -15.3167,10.58932 -8.3202,3.02552 -18.5313,3.02552 z m 13.993,-34.0371 -45.1937,-106.83868 h 36.8735 l 33.2808,82.82361 z"
        id="path773"
        style="fill:#ffffff;fill-opacity:1" /><path
        d="m 2313.4823,329.46808 q 11.913,0 21.1787,4.91647 9.4547,4.72737 14.7494,14.74941 5.4837,10.02203 5.4837,25.90601 v 58.61945 h -35.928 v -52.7575 q 0,-10.96751 -4.1601,-15.88398 -4.1601,-5.10557 -11.3457,-5.10557 -5.1056,0 -9.2657,2.45824 -4.16,2.45823 -6.4292,7.5638 -2.2691,4.91647 -2.2691,12.85846 v 50.86655 h -35.9281 v -52.7575 q 0,-10.96751 -4.1601,-15.88398 -3.971,-5.10557 -11.3457,-5.10557 -5.2946,0 -9.4547,2.45824 -3.971,2.45823 -6.4292,7.5638 -2.2692,4.91647 -2.2692,12.85846 v 50.86655 h -35.928 V 331.16993 h 34.2262 v 28.55335 l -6.8075,-8.13109 q 5.6729,-10.96751 15.5058,-16.45126 9.833,-5.67285 21.9351,-5.67285 13.8039,0 24.2041,7.18561 10.5893,6.99651 14.1821,21.93502 l -11.7239,-2.45824 q 5.4838,-12.48027 16.4513,-19.47678 11.1566,-7.18561 25.5278,-7.18561 z"
        id="path775"
        style="fill:#ffffff;fill-opacity:1" /><path
        d="m 2442.067,435.36128 q -13.0475,0 -22.3132,-5.67285 -9.2656,-5.86195 -14.1821,-17.39674 -4.7274,-11.72389 -4.7274,-29.87701 0,-18.34222 4.5383,-29.87701 4.5383,-11.72389 13.6148,-17.39674 9.2657,-5.67285 23.0696,-5.67285 13.9931,0 25.3388,6.61832 11.5348,6.42923 18.1531,18.34222 6.8074,11.72389 6.8074,27.98606 0,16.26217 -6.8074,28.17515 -6.6183,11.91299 -18.1531,18.34222 -11.3457,6.42923 -25.3388,6.42923 z m -64.4814,34.98257 V 331.16993 h 34.2262 v 17.39674 l -0.1891,33.84801 1.891,34.0371 v 53.89207 z m 56.9176,-63.53592 q 6.0511,0 10.7784,-2.83642 4.9165,-2.83643 7.7529,-8.32018 3.0256,-5.48376 3.0256,-13.23665 0,-7.7529 -3.0256,-13.23665 -2.8364,-5.48376 -7.7529,-8.32018 -4.7273,-2.83643 -10.7784,-2.83643 -6.051,0 -10.9675,2.83643 -4.7274,2.83642 -7.7529,8.32018 -2.8364,5.48375 -2.8364,13.23665 0,7.75289 2.8364,13.23665 3.0255,5.48375 7.7529,8.32018 4.9165,2.83642 10.9675,2.83642 z"
        id="path777"
        style="fill:#ffffff;fill-opacity:1" /><path
        d="M 2509.0065,433.65942 V 331.16993 h 35.9281 v 102.48949 z m 17.9641,-113.83519 q -9.833,0 -15.884,-5.48375 -6.0511,-5.48376 -6.0511,-13.61484 0,-8.13109 6.0511,-13.61484 6.051,-5.48376 15.884,-5.48376 9.8329,0 15.8839,5.29466 6.0511,5.10557 6.0511,13.23665 0,8.50928 -6.0511,14.18213 -5.8619,5.48375 -15.8839,5.48375 z"
        id="path779"
        style="fill:#ffffff;fill-opacity:1" /><path
        d="m 2630.7837,433.65942 v -19.09859 l -2.4582,-4.72738 v -35.17167 q 0,-8.50927 -5.2946,-13.04755 -5.1056,-4.72738 -16.4513,-4.72738 -7.3747,0 -14.9385,2.45824 -7.5638,2.26914 -12.8585,6.42923 l -12.1021,-24.39326 q 8.6984,-5.67285 20.8005,-8.69837 12.2912,-3.21461 24.3932,-3.21461 24.9606,0 38.5754,11.53479 13.804,11.3457 13.804,35.73896 v 56.91759 z m -30.2552,1.70186 q -12.2911,0 -20.8004,-4.16009 -8.5093,-4.16009 -13.0476,-11.3457 -4.3491,-7.18561 -4.3491,-16.07308 0,-9.45475 4.7273,-16.26217 4.9165,-6.99651 14.9385,-10.58932 10.0221,-3.7819 25.9061,-3.7819 h 24.2041 v 18.72041 h -19.2877 q -8.6983,0 -12.2912,2.83642 -3.4037,2.83643 -3.4037,7.5638 0,4.72738 3.5928,7.5638 3.5928,2.83643 9.833,2.83643 5.8619,0 10.5893,-2.83643 4.9165,-3.02552 7.1856,-9.07656 l 4.9165,13.23665 q -2.8364,10.58932 -11.1566,16.07308 -8.1311,5.29466 -21.5569,5.29466 z"
        id="path781"
        style="fill:#ffffff;fill-opacity:1" /><path
        d="m 2732.8756,435.36128 q -13.993,0 -25.5278,-6.42923 -11.3457,-6.61833 -18.1531,-18.34222 -6.8074,-11.91298 -6.8074,-28.36425 0,-16.26217 6.8074,-27.98606 6.8074,-11.91298 18.1531,-18.34221 11.5348,-6.42923 25.5278,-6.42923 13.2367,0 22.3132,5.67285 9.2657,5.67285 13.9931,17.39674 4.7273,11.72389 4.7273,29.68791 0,18.34222 -4.5382,30.06611 -4.5383,11.72389 -13.6149,17.39674 -9.0765,5.67285 -22.8805,5.67285 z m 7.5638,-28.55335 q 6.0511,0 10.7784,-2.83642 4.9165,-2.83643 7.7529,-8.32018 2.8365,-5.67285 2.8365,-13.42575 0,-7.75289 -2.8365,-13.04755 -2.8364,-5.48376 -7.7529,-8.32018 -4.7273,-2.83643 -10.7784,-2.83643 -6.2401,0 -11.1566,2.83643 -4.7273,2.83642 -7.5638,8.32018 -2.8364,5.29466 -2.8364,13.04755 0,7.7529 2.8364,13.42575 2.8365,5.48375 7.5638,8.32018 4.9165,2.83642 11.1566,2.83642 z m 22.5023,26.85149 v -17.58583 l 0.1891,-33.84801 -1.8909,-33.848 v -55.02665 h 35.928 v 140.30849 z"
        id="path783"
        style="fill:#ffffff;fill-opacity:1" /></g><g
        aria-label="at University oƒ Virginia"
        id="text844"
        style="font-size:150.1px;stroke-width:3.75252;fill:#ffffff;fill-opacity:1"><path
           d="m 1052.2596,622.06897 v -16.2108 l -1.0507,-3.4523 v -28.3689 q 0,-8.2555 -4.9533,-12.7585 -4.9533,-4.6531 -15.01,-4.6531 -6.7545,0 -13.3589,2.1014 -6.4543,2.1014 -10.9573,5.8539 l -7.35492,-13.6591 q 6.45432,-4.9533 15.31022,-7.3549 9.006,-2.5517 18.6124,-2.5517 17.4116,0 26.8679,8.4056 9.6064,8.2555 9.6064,25.6671 v 46.9813 z m -25.2168,1.0507 q -9.006,0 -15.7605,-3.002 -6.7545,-3.1521 -10.507,-8.5557 -3.60242,-5.5537 -3.60242,-12.4583 0,-6.7545 3.15212,-12.1581 3.3022,-5.4036 10.6571,-8.5557 7.3549,-3.1521 19.513,-3.1521 h 23.2655 v 12.4583 h -21.9146 q -9.6064,0 -12.9086,3.1521 -3.3022,3.002 -3.3022,7.505 0,5.1034 4.0527,8.1054 4.0527,3.002 11.2575,3.002 6.9046,0 12.3082,-3.1521 5.5537,-3.1521 7.9553,-9.3062 l 3.1521,11.2575 q -2.7018,7.0547 -9.7565,10.9573 -6.9046,3.9026 -17.5617,3.9026 z"
           style="-inkscape-font-specification:'Montserrat, @wght=600';fill:#ffffff;fill-opacity:1"
           id="path816" /><path
        d="m 1124.1575,623.11967 q -13.2088,0 -20.4136,-6.7545 -7.2048,-6.9046 -7.2048,-20.2635 v -71.8979 h 18.7625 v 71.4476 q 0,5.7038 2.8519,8.8559 3.002,3.1521 8.2555,3.1521 6.3042,0 10.507,-3.3022 l 5.2535,13.3589 q -3.3022,2.7018 -8.1054,4.0527 -4.8032,1.3509 -9.9066,1.3509 z m -40.8272,-65.5937 v -15.01 h 53.4356 v 15.01 z"
        style="-inkscape-font-specification:'Montserrat, @wght=600';fill:#ffffff;fill-opacity:1"
        id="path818" /><path
        d="m 1246.0386,623.56997 q -21.6144,0 -33.9226,-12.1581 -12.1581,-12.1581 -12.1581,-35.1234 v -59.2895 h 19.513 v 58.539 q 0,16.2108 6.9046,23.5657 7.0547,7.3549 19.8132,7.3549 12.7585,0 19.6631,-7.3549 6.9046,-7.3549 6.9046,-23.5657 v -58.539 h 19.2128 v 59.2895 q 0,22.9653 -12.3082,35.1234 -12.1581,12.1581 -33.6224,12.1581 z"
        style="-inkscape-font-specification:'Montserrat, @wght=600';fill:#ffffff;fill-opacity:1"
        id="path820" /><path
        d="m 1362.9664,541.01497 q 9.6064,0 17.1114,3.7525 7.6551,3.7525 12.008,11.5577 4.3529,7.6551 4.3529,19.8132 v 45.9306 h -18.7625 v -43.529 q 0,-10.6571 -5.1034,-15.9106 -4.9533,-5.2535 -13.9593,-5.2535 -6.6044,0 -11.7078,2.7018 -5.1034,2.7018 -7.9553,8.1054 -2.7018,5.2535 -2.7018,13.3589 v 40.527 h -18.7625 v -80.1534 h 17.8619 v 21.6144 l -3.1521,-6.6044 q 4.2028,-7.6551 12.1581,-11.7078 8.1054,-4.2028 18.6124,-4.2028 z"
        style="-inkscape-font-specification:'Montserrat, @wght=600';fill:#ffffff;fill-opacity:1"
        id="path822" /><path
        d="m 1420.3045,622.06897 v -80.1534 h 18.7625 v 80.1534 z m 9.4563,-93.3622 q -5.2535,0 -8.7058,-3.3022 -3.3022,-3.3022 -3.3022,-7.9553 0,-4.8032 3.3022,-7.9553 3.4523,-3.3022 8.7058,-3.3022 5.2535,0 8.5557,3.1521 3.4523,3.002 3.4523,7.6551 0,4.9533 -3.3022,8.4056 -3.3022,3.3022 -8.7058,3.3022 z"
        style="-inkscape-font-specification:'Montserrat, @wght=600';fill:#ffffff;fill-opacity:1"
        id="path824" /><path
        d="m 1484.9976,622.06897 -34.3729,-80.1534 h 19.513 l 29.5697,70.6971 h -9.6064 l 30.6204,-70.6971 h 18.012 l -34.3729,80.1534 z"
        style="-inkscape-font-specification:'Montserrat, @wght=600';fill:#ffffff;fill-opacity:1"
        id="path826" /><path
        d="m 1585.8647,623.11967 q -13.3589,0 -23.4156,-5.2535 -9.9066,-5.4036 -15.4603,-14.7098 -5.4036,-9.3062 -5.4036,-21.1641 0,-12.008 5.2535,-21.1641 5.4036,-9.3062 14.7098,-14.5597 9.4563,-5.2535 21.4643,-5.2535 11.7078,0 20.8639,5.1034 9.1561,5.1034 14.4096,14.4096 5.2535,9.3062 5.2535,21.9146 0,1.2008 -0.1501,2.7018 0,1.501 -0.1501,2.8519 h -66.7945 v -12.4583 h 56.8879 l -7.3549,3.9026 q 0.1501,-6.9046 -2.8519,-12.1581 -3.002,-5.2535 -8.2555,-8.2555 -5.1034,-3.002 -11.8579,-3.002 -6.9046,0 -12.1581,3.002 -5.1034,3.002 -8.1054,8.4056 -2.8519,5.2535 -2.8519,12.4583 v 3.002 q 0,7.2048 3.3022,12.7585 3.3022,5.5537 9.3062,8.5557 6.004,3.002 13.8092,3.002 6.7545,0 12.1581,-2.1014 5.4036,-2.1014 9.6064,-6.6044 l 10.0567,11.5577 q -5.4036,6.3042 -13.6591,9.7565 -8.1054,3.3022 -18.6124,3.3022 z"
        style="-inkscape-font-specification:'Montserrat, @wght=600';fill:#ffffff;fill-opacity:1"
        id="path828" /><path
        d="m 1641.5518,622.06897 v -80.1534 h 17.8619 v 22.0647 l -2.1014,-6.4543 q 3.6024,-8.1054 11.2575,-12.3082 7.8052,-4.2028 19.3629,-4.2028 v 17.8619 q -1.2008,-0.3002 -2.2515,-0.3002 -1.0507,-0.1501 -2.1014,-0.1501 -10.6571,0 -16.9613,6.3042 -6.3042,6.1541 -6.3042,18.4623 v 38.8759 z"
        style="-inkscape-font-specification:'Montserrat, @wght=600';fill:#ffffff;fill-opacity:1"
        id="path830" /><path
        d="m 1729.3603,623.11967 q -10.0567,0 -19.3629,-2.5517 -9.1561,-2.7018 -14.5597,-6.4543 l 7.2048,-14.2595 q 5.4036,3.4523 12.9086,5.7038 7.505,2.2515 15.01,2.2515 8.8559,0 12.7585,-2.4016 4.0527,-2.4016 4.0527,-6.4543 0,-3.3022 -2.7018,-4.9533 -2.7018,-1.8012 -7.0547,-2.7018 -4.3529,-0.9006 -9.7565,-1.6511 -5.2535,-0.7505 -10.6571,-1.9513 -5.2535,-1.3509 -9.6064,-3.7525 -4.3529,-2.5517 -7.0547,-6.7545 -2.7018,-4.2028 -2.7018,-11.1074 0,-7.6551 4.3529,-13.2088 4.3529,-5.7038 12.1581,-8.7058 7.9553,-3.1521 18.7625,-3.1521 8.1054,0 16.3609,1.8012 8.2555,1.8012 13.6591,5.1034 l -7.2048,14.2595 q -5.7038,-3.4523 -11.5577,-4.6531 -5.7038,-1.3509 -11.4076,-1.3509 -8.5557,0 -12.7585,2.5517 -4.0527,2.5517 -4.0527,6.4543 0,3.6024 2.7018,5.4036 2.7018,1.8012 7.0547,2.8519 4.3529,1.0507 9.6064,1.8012 5.4036,0.6004 10.6571,1.9513 5.2535,1.3509 9.6064,3.7525 4.503,2.2515 7.2048,6.4543 2.7018,4.2028 2.7018,10.9573 0,7.505 -4.503,13.0587 -4.3529,5.5537 -12.4583,8.7058 -8.1054,3.002 -19.3629,3.002 z"
        style="-inkscape-font-specification:'Montserrat, @wght=600';fill:#ffffff;fill-opacity:1"
        id="path832" /><path
        d="m 1781.8952,622.06897 v -80.1534 h 18.7625 v 80.1534 z m 9.4563,-93.3622 q -5.2535,0 -8.7058,-3.3022 -3.3022,-3.3022 -3.3022,-7.9553 0,-4.8032 3.3022,-7.9553 3.4523,-3.3022 8.7058,-3.3022 5.2535,0 8.5557,3.1521 3.4523,3.002 3.4523,7.6551 0,4.9533 -3.3022,8.4056 -3.3022,3.3022 -8.7058,3.3022 z"
        style="-inkscape-font-specification:'Montserrat, @wght=600';fill:#ffffff;fill-opacity:1"
        id="path834" /><path
        d="m 1855.4442,623.11967 q -13.2088,0 -20.4136,-6.7545 -7.2048,-6.9046 -7.2048,-20.2635 v -71.8979 h 18.7625 v 71.4476 q 0,5.7038 2.8519,8.8559 3.002,3.1521 8.2555,3.1521 6.3042,0 10.507,-3.3022 l 5.2535,13.3589 q -3.3022,2.7018 -8.1054,4.0527 -4.8032,1.3509 -9.9066,1.3509 z m -40.8272,-65.5937 v -15.01 h 53.4356 v 15.01 z"
        style="-inkscape-font-specification:'Montserrat, @wght=600';fill:#ffffff;fill-opacity:1"
        id="path836" /><path
        d="m 1894.0198,652.23907 q -5.8539,0 -11.7078,-1.9513 -5.8539,-1.9513 -9.7565,-5.4036 l 7.505,-13.8092 q 2.8519,2.5517 6.4543,4.0527 3.6024,1.501 7.3549,1.501 5.1034,0 8.2555,-2.5517 3.1521,-2.5517 5.8539,-8.5557 l 4.6531,-10.507 1.501,-2.2515 30.3202,-70.8472 h 18.012 l -37.525,86.6077 q -3.7525,9.006 -8.4056,14.2595 -4.503,5.2535 -10.2068,7.3549 -5.5537,2.1014 -12.3082,2.1014 z m 16.511,-27.3182 -36.1741,-83.0053 h 19.513 l 29.4196,69.1961 z"
        style="-inkscape-font-specification:'Montserrat, @wght=600';fill:#ffffff;fill-opacity:1"
        id="path838" /><path
        d="m 2047.2717,623.11967 q -11.7078,0 -20.5637,-4.3529 -8.7058,-4.503 -13.509,-12.3082 -4.8032,-7.9553 -4.8032,-18.6124 0,-13.509 6.1541,-24.016 6.1541,-10.6571 16.8112,-16.6611 10.8072,-6.1541 24.6164,-6.1541 11.8579,0 20.5637,4.3529 8.8559,4.2028 13.6591,12.1581 4.8032,7.8052 4.8032,18.6124 0,13.3589 -6.1541,24.016 -6.1541,10.6571 -16.9613,16.8112 -10.6571,6.1541 -24.6164,6.1541 z m 1.2008,-16.0607 q 8.1054,0 14.2595,-3.7525 6.1541,-3.9026 9.7565,-10.6571 3.6024,-6.7545 3.6024,-15.6104 0,-9.3062 -5.5537,-14.7098 -5.5537,-5.4036 -15.6104,-5.4036 -7.9553,0 -14.2595,3.9026 -6.1541,3.7525 -9.7565,10.507 -3.6024,6.7545 -3.6024,15.6104 0,9.4563 5.5537,14.8599 5.5537,5.2535 15.6104,5.2535 z"
        id="path840"
        style="fill:#ffffff;fill-opacity:1" /><path
        d="m 2103.8594,652.23907 q -5.2535,0 -9.9066,-1.2008 -4.6531,-1.2008 -7.8052,-3.6024 l 6.6044,-13.8092 q 4.2028,3.1521 10.2068,3.1521 5.1034,0 8.4056,-3.3022 3.4523,-3.1521 4.2028,-9.4563 l 10.8072,-86.6077 q 1.501,-12.6084 9.6064,-20.1134 8.2555,-7.6551 21.6144,-7.6551 4.8032,0 9.4563,1.2008 4.8032,1.0507 7.6551,3.6024 l -6.7545,13.8092 q -1.9513,-1.501 -4.503,-2.2515 -2.4016,-0.9006 -5.2535,-0.9006 -5.7038,0 -9.3062,3.3022 -3.4523,3.1521 -4.3529,9.4563 l -1.2008,8.8559 -0.3002,8.4056 -8.7058,69.3462 q -1.501,12.6084 -9.6064,20.1134 -7.9553,7.6551 -20.8639,7.6551 z m 6.7545,-92.7618 1.8012,-15.01 h 53.2855 l -1.8012,15.01 z"
        style="-inkscape-font-specification:'Montserrat, @wght=600';fill:#ffffff;fill-opacity:1"
        id="path842" /><path
        d="m 2256.361,622.06897 -45.9306,-105.07 h 21.1641 l 40.9773,95.0133 h -12.1581 l 41.4276,-95.0133 h 19.513 l -45.7805,105.07 z"
        style="-inkscape-font-specification:'Montserrat, @wght=600';fill:#ffffff;fill-opacity:1"
        id="path844" /><path
        d="m 2331.4408,622.06897 v -80.1534 h 18.7625 v 80.1534 z m 9.4563,-93.3622 q -5.2535,0 -8.7058,-3.3022 -3.3022,-3.3022 -3.3022,-7.9553 0,-4.8032 3.3022,-7.9553 3.4523,-3.3022 8.7058,-3.3022 5.2535,0 8.5557,3.1521 3.4523,3.002 3.4523,7.6551 0,4.9533 -3.3022,8.4056 -3.3022,3.3022 -8.7058,3.3022 z"
        style="-inkscape-font-specification:'Montserrat, @wght=600';fill:#ffffff;fill-opacity:1"
        id="path846" /><path
        d="m 2374.8196,622.06897 v -80.1534 h 17.8619 v 22.0647 l -2.1014,-6.4543 q 3.6024,-8.1054 11.2575,-12.3082 7.8052,-4.2028 19.3629,-4.2028 v 17.8619 q -1.2008,-0.3002 -2.2515,-0.3002 -1.0507,-0.1501 -2.1014,-0.1501 -10.6571,0 -16.9613,6.3042 -6.3042,6.1541 -6.3042,18.4623 v 38.8759 z"
        style="-inkscape-font-specification:'Montserrat, @wght=600';fill:#ffffff;fill-opacity:1"
        id="path848" /><path
        d="m 2472.6512,652.23907 q -11.1074,0 -21.7645,-3.002 -10.507,-2.8519 -17.2615,-8.4056 l 8.4056,-14.1094 q 5.2535,4.3529 13.2088,6.9046 8.1054,2.7018 16.3609,2.7018 13.2088,0 19.3629,-6.1541 6.1541,-6.004 6.1541,-18.1621 v -14.2595 l 1.501,-18.1621 -0.6004,-18.1621 v -19.513 h 17.8619 v 67.9953 q 0,21.7645 -11.1074,31.9713 -11.1074,10.3569 -32.1214,10.3569 z m -2.4016,-33.7725 q -11.4076,0 -20.7138,-4.8032 -9.1561,-4.9533 -14.5597,-13.6591 -5.2535,-8.7058 -5.2535,-20.4136 0,-11.5577 5.2535,-20.2635 5.4036,-8.7058 14.5597,-13.509 9.3062,-4.8032 20.7138,-4.8032 10.2068,0 18.3122,4.0527 8.1054,4.0527 12.9086,12.6084 4.9533,8.5557 4.9533,21.9146 0,13.3589 -4.9533,22.0647 -4.8032,8.5557 -12.9086,12.7585 -8.1054,4.0527 -18.3122,4.0527 z m 2.8519,-15.9106 q 7.0547,0 12.6084,-2.8519 5.5537,-3.002 8.5557,-8.1054 3.1521,-5.2535 3.1521,-12.008 0,-6.7545 -3.1521,-11.8579 -3.002,-5.2535 -8.5557,-7.9553 -5.5537,-2.8519 -12.6084,-2.8519 -7.0547,0 -12.7585,2.8519 -5.5537,2.7018 -8.7058,7.9553 -3.002,5.1034 -3.002,11.8579 0,6.7545 3.002,12.008 3.1521,5.1034 8.7058,8.1054 5.7038,2.8519 12.7585,2.8519 z"
        style="-inkscape-font-specification:'Montserrat, @wght=600';fill:#ffffff;fill-opacity:1"
        id="path850" /><path
        d="m 2540.4966,622.06897 v -80.1534 h 18.7625 v 80.1534 z m 9.4563,-93.3622 q -5.2535,0 -8.7058,-3.3022 -3.3022,-3.3022 -3.3022,-7.9553 0,-4.8032 3.3022,-7.9553 3.4523,-3.3022 8.7058,-3.3022 5.2535,0 8.5557,3.1521 3.4523,3.002 3.4523,7.6551 0,4.9533 -3.3022,8.4056 -3.3022,3.3022 -8.7058,3.3022 z"
        style="-inkscape-font-specification:'Montserrat, @wght=600';fill:#ffffff;fill-opacity:1"
        id="path852" /><path
        d="m 2629.3556,541.01497 q 9.6064,0 17.1114,3.7525 7.6551,3.7525 12.008,11.5577 4.3529,7.6551 4.3529,19.8132 v 45.9306 h -18.7625 v -43.529 q 0,-10.6571 -5.1034,-15.9106 -4.9533,-5.2535 -13.9593,-5.2535 -6.6044,0 -11.7078,2.7018 -5.1034,2.7018 -7.9553,8.1054 -2.7018,5.2535 -2.7018,13.3589 v 40.527 h -18.7625 v -80.1534 h 17.8619 v 21.6144 l -3.1521,-6.6044 q 4.2028,-7.6551 12.1581,-11.7078 8.1054,-4.2028 18.6124,-4.2028 z"
        style="-inkscape-font-specification:'Montserrat, @wght=600';fill:#ffffff;fill-opacity:1"
        id="path854" /><path
        d="m 2686.6937,622.06897 v -80.1534 h 18.7625 v 80.1534 z m 9.4563,-93.3622 q -5.2535,0 -8.7058,-3.3022 -3.3022,-3.3022 -3.3022,-7.9553 0,-4.8032 3.3022,-7.9553 3.4523,-3.3022 8.7058,-3.3022 5.2535,0 8.5557,3.1521 3.4523,3.002 3.4523,7.6551 0,4.9533 -3.3022,8.4056 -3.3022,3.3022 -8.7058,3.3022 z"
        style="-inkscape-font-specification:'Montserrat, @wght=600';fill:#ffffff;fill-opacity:1"
        id="path856" /><path
        d="m 2779.4555,622.06897 v -16.2108 l -1.0507,-3.4523 v -28.3689 q 0,-8.2555 -4.9533,-12.7585 -4.9533,-4.6531 -15.01,-4.6531 -6.7545,0 -13.3589,2.1014 -6.4543,2.1014 -10.9573,5.8539 l -7.3549,-13.6591 q 6.4543,-4.9533 15.3102,-7.3549 9.006,-2.5517 18.6124,-2.5517 17.4116,0 26.8679,8.4056 9.6064,8.2555 9.6064,25.6671 v 46.9813 z m -25.2168,1.0507 q -9.006,0 -15.7605,-3.002 -6.7545,-3.1521 -10.507,-8.5557 -3.6024,-5.5537 -3.6024,-12.4583 0,-6.7545 3.1521,-12.1581 3.3022,-5.4036 10.6571,-8.5557 7.3549,-3.1521 19.513,-3.1521 h 23.2655 v 12.4583 h -21.9146 q -9.6064,0 -12.9086,3.1521 -3.3022,3.002 -3.3022,7.505 0,5.1034 4.0527,8.1054 4.0527,3.002 11.2575,3.002 6.9046,0 12.3082,-3.1521 5.5537,-3.1521 7.9553,-9.3062 l 3.1521,11.2575 q -2.7018,7.0547 -9.7565,10.9573 -6.9046,3.9026 -17.5617,3.9026 z"
        style="-inkscape-font-specification:'Montserrat, @wght=600';fill:#ffffff;fill-opacity:1"
        id="path858" /></g></g></g></svg>
